<svg xmlns="http://www.w3.org/2000/svg" xmlns:xlink="http://www.w3.org/1999/xlink" width="102" height="44.464" viewBox="0 0 102 44.464"><defs><style>.a{clip-path:url(#b);}.b{fill:#e02041;}.c{fill:#41414d;}</style><clipPath id="b"><rect width="102" height="44.464"/></clipPath></defs><g id="a" class="a"><g transform="translate(1 1)"><path class="b" d="M65.958,37.92H59.1l4.122-14.033H59.733L54.005,42.626H47.144L58.488,4.678h6.862L61.476,17.991h3.486L70.468,0h6.862Z" transform="translate(-28.186)"/><path class="b" d="M109.022,11.632h13.087l-1.964,5.979H114.2l-2.158,7.307h5.976l-1.881,5.9h-5.838L108,38.537h6.364l-2.3,6.311H99.228Z" transform="translate(-59.326 -6.955)"/><path class="b" d="M141.028,49.581h-6.917L145.15,11.632h12.561c1.494,0,2.49.415,3.016,1.273A3.459,3.459,0,0,1,161,15.84l-3.32,11.293a3.105,3.105,0,0,1-.941,1.356,2.909,2.909,0,0,1-1.992.609,1.93,1.93,0,0,1,1.328,1,3.319,3.319,0,0,1,0,2.657L152.51,44.875h-6.889l3.818-13.037a1.248,1.248,0,0,0,.028-.775c-.083-.249-.332-.36-.747-.36h-2.3ZM150.213,25.8a1.915,1.915,0,0,0,.941-.249,1.74,1.74,0,0,0,.664-1.024l1.826-6.172c.277-.913-.083-1.384-1.052-1.384h-2.158l-2.6,8.83Z" transform="translate(-80.181 -6.955)"/><path class="b" d="M210.255,11.632a2.583,2.583,0,0,1,2.352,1.163,3.1,3.1,0,0,1,.332,2.629L205.3,41.36a4.288,4.288,0,0,1-2.13,2.8,7.079,7.079,0,0,1-3.209.72h-8.19a4.359,4.359,0,0,1-1.6-.3,3.02,3.02,0,0,1-1.217-.886,3.108,3.108,0,0,1-.636-1.439,3.908,3.908,0,0,1,.166-1.91l7.5-25.465a4.239,4.239,0,0,1,1.494-2.353,4.465,4.465,0,0,1,2.822-.886Zm-7.193,5.342a1.014,1.014,0,0,0-.719.221,1.522,1.522,0,0,0-.332.581l-6.114,20.7c-.166.554.055.83.636.83H198.3a1.052,1.052,0,0,0,1.107-.83L205.5,17.8c.138-.581-.083-.858-.692-.858h-1.743Z" transform="translate(-112.555 -6.955)"/><path class="c" d="M26.219,20.649h4.454c.581,0,.941.166,1.107.471a1.48,1.48,0,0,1,.083,1.107l-1.051,3.6a1.045,1.045,0,0,1-.415.581,1.443,1.443,0,0,1-.968.249.821.821,0,0,1,.5.138.646.646,0,0,1,.277.332,1.148,1.148,0,0,1,.083.443,2.439,2.439,0,0,1-.055.471l-1,3.294a1.786,1.786,0,0,1-.609.913,2.02,2.02,0,0,1-1.245.332H22.7Zm.443,9.964a.994.994,0,0,0,.3-.055.632.632,0,0,0,.221-.332l.719-2.408a.468.468,0,0,0,0-.387c-.055-.111-.166-.138-.332-.138H26.8l-1,3.349h.858Zm1.356-4.927A.733.733,0,0,0,28.4,25.6a.617.617,0,0,0,.221-.36l.636-2.159a.564.564,0,0,0,.028-.36.377.377,0,0,0-.332-.138h-.8l-.913,3.1Z" transform="translate(-13.575 -12.346)"/><path class="c" d="M43.557,20.649h4.7l-.636,2.159H45.411l-.775,2.63h2.158l-.636,2.131H44l-.83,2.768h2.3l-.83,2.27H40.043Z" transform="translate(-23.941 -12.346)"/><path class="c" d="M7.636,55.506,7,57.665H5.312l-2.85,9.771H0l2.905-9.8H1.19l.636-2.159h5.81Z" transform="translate(0 -33.169)"/><path class="c" d="M18.1,67.476H15.638L17.1,62.439H15.859l-1.494,5.038H11.9l3.514-11.93h2.462L16.5,60.335h1.245l1.411-4.788h2.462Z" transform="translate(-7.116 -33.21)"/><path class="c" d="M32.755,55.547h4.7l-.636,2.159H34.609l-.775,2.63h2.158l-.636,2.131H33.2l-.83,2.768h2.3l-.83,2.27H29.241Z" transform="translate(-17.483 -33.21)"/></g></g></svg>